<?xml version="1.0" encoding="utf-8"?>
<!-- Generator: Adobe Illustrator 17.1.0, SVG Export Plug-In . SVG Version: 6.00 Build 0)  -->
<!DOCTYPE svg PUBLIC "-//W3C//DTD SVG 1.1//EN" "http://www.w3.org/Graphics/SVG/1.1/DTD/svg11.dtd">
<svg version="1.1" id="Layer_1" xmlns="http://www.w3.org/2000/svg" xmlns:xlink="http://www.w3.org/1999/xlink" x="0px" y="0px"
	 viewBox="0 0 91.7 34.3" enable-background="new 0 0 91.7 34.3" xml:space="preserve">
<g>
	<path fill="#FCC916" d="M47.7,2.1c0,0.1,0.1,0.1,0.1,0.2c-0.1,0-0.2,0.1-0.2,0.1c-0.1,0.1-0.1,0.1-0.2,0.2c0,1.2,0,2.4,0,3.6
		c0,0.3,0,0.6,0.4,0.8c0.1,0,0.1,0.1,0.1,0.2c-0.6,0-1.1,0-1.7,0C46.2,7,46.4,7,46.6,7c0.2-0.2,0.2-0.4,0.2-0.7c0-0.3,0-0.6,0-1
		c-0.8-0.7-1.6-1.5-2.4-2.3c0,0.7,0,1.3,0,1.9c0,0.6-0.1,1.3,0.1,1.9c0.2,0.1,0.4,0.2,0.4,0.4c-0.6,0-1.1,0-1.7,0
		c0.1-0.1,0.1-0.3,0.2-0.3c0.3-0.1,0.3-0.3,0.3-0.6c0-1,0-1.9,0-2.9c0-0.4-0.1-0.7-0.2-1.1c-0.2,0-0.3,0-0.5,0
		c0.1-0.1,0.1-0.2,0.2-0.3c0.7,0,1.3,0,2,0c0,0.1-0.1,0.2-0.1,0.3c0.6,0.4,1,0.9,1.5,1.4c0.1-0.2,0-0.4,0-0.7c0-0.2,0-0.4,0-0.7
		c-0.2-0.1-0.3-0.1-0.4-0.2c0-0.1,0.1-0.2,0.1-0.3C46.8,2.1,47.2,2.1,47.7,2.1z"/>
	<path fill="#FCC916" d="M53.1,14.4c-0.1,0-0.1,0-0.2,0.1c0,0,0,0.1,0,0.1c0.2,0.3,0.5,0.5,0.9,0.4c0.2,0,0.4,0,0.5,0.1
		c0.2,0.1,0.4,0.1,0.5,0.1c0.5-0.1,1-0.2,1.4-0.3c0.5-0.1,0.8-0.1,1.2,0.1c0.3,0.1,0.5,0.2,0.8,0.3c0.1,0,0.3,0,0.4,0
		c0.2-0.1,0.4,0,0.6,0.1c0.4,0.2,0.7,0.5,0.9,1c0.2,0.3,0.2,0.6,0.6,0.7c0,0,0,0.1,0,0.1c0.1,0.3,0.2,0.6,0.6,0.6c0,0.2,0,0.4,0,0.5
		c0.2,0.2,0.4,0.5,0.3,0.8c-0.3-0.1-0.6-0.1-0.9-0.3c-0.1-0.1-0.2-0.1-0.3-0.1c-0.6-0.2-0.6-0.2-1.1-0.6c-0.3-0.7-0.4-1.4-0.9-2
		c0,0.3,0,0.5,0,0.8c0,0.3,0.1,0.5,0.1,0.8c0.2,0.2,0.4,0.4,0.6,0.5c0.1,0.5,0.2,0.9,0.3,1.4c0.1,0.2,0.2,0.5,0.1,0.7
		c0,0.3-0.1,0.5-0.2,0.7c-0.2,0-0.5,0.1-0.7,0.1c-0.1-0.3-0.1-0.3,0.2-0.7c-0.1-1.2-0.6-2-1.8-2.6c-0.1,0.2-0.2,0.4-0.2,0.6
		c0,0.6,0,0.7-0.3,1.1c-0.2,0.3-0.5,0.6-0.6,0.9c0,0.1-0.1,0.1-0.2,0.2c-0.2,0.1-0.2,0.3-0.4,0.4c-0.2,0-0.4,0-0.6,0
		c0-0.1,0-0.2,0-0.3c0.1-0.1,0.3-0.3,0.5-0.4c0.1-0.1,0.2-0.3,0.3-0.5c0.3-0.3,0.3-0.6,0.3-1c0-0.3,0-0.5-0.1-0.8
		c-0.1-0.2,0-0.5,0-0.8c-0.1,0-0.2,0-0.3,0.1c-0.2,0.1-0.4,0.2-0.6,0.3c-0.4,0.3-0.9,0.3-1.3,0.4c-0.2-0.2-0.4-0.1-0.6-0.1
		c-0.1,0-0.1,0-0.2,0c-0.3,0.4-0.2,0.8-0.4,1.2c-0.1,0.4-0.2,0.8-0.2,1.3c-0.1,0-0.2,0-0.3,0C52,20.8,52,21,51.9,21.1
		c-0.2,0-0.5,0-0.7,0c0.1-0.3,0.3-0.5,0.6-0.6c0.1-0.2,0.1-0.4,0.1-0.6c0-0.2,0-0.4,0-0.6c0.1-0.2,0.1-0.4,0.1-0.6
		c0-0.2,0.1-0.4-0.2-0.6c-0.1,0-0.3,0-0.4,0.1c-0.2,0.1-0.5-0.1-0.6,0.2c0,0.2-0.1,0.4-0.1,0.6c0,0.2-0.1,0.4,0.1,0.6
		c0,0-0.1,0.1-0.1,0.1c0.1,0,0.2,0,0.3,0.1c0,0.2,0.1,0.4,0.2,0.7c-0.3,0.1-0.6,0-0.8-0.2c-0.1-0.1-0.3-0.6-0.2-0.8
		c0.1-0.2,0-0.5,0.1-0.7c0.1-0.2,0-0.4,0.1-0.6c0.3,0,0.2-0.4,0.4-0.4c0.2-0.1,0.4-0.1,0.6-0.3c-0.1-0.1-0.1-0.2-0.2-0.4
		c0.1-0.3-0.1-0.6-0.2-0.9c-0.2-0.4-0.4-0.7-0.5-1.1c0-0.1-0.1-0.2-0.1-0.3c-0.7-0.1-1.3,0.1-1.8,0.5c-0.1-0.1-0.2-0.1-0.3-0.2
		c0-0.2,0-0.3,0-0.5c0.5-0.5,1.1-1.1,1.4-1.8c0.1,0.1,0.2,0.1,0.3,0.2c0.4,0,0.9,0,1.4,0.2c0.2,0.1,0.4,0,0.7,0
		c-0.1,0.2-0.2,0.3-0.3,0.4c0.2,0,0.4,0,0.5,0.1c0.1,0.1,0.3,0.2,0.4,0.4C52.8,14.2,53.1,14.1,53.1,14.4z"/>
	<path fill="#FCC916" d="M35,19.4c0-0.4,0-0.8-0.1-1.3c-0.7,0.3-1.3,0.7-1.6,1.4c-0.1,0.2-0.1,0.4-0.2,0.6c0,0.1-0.1,0.2-0.1,0.3
		c0,0.2,0,0.3,0.1,0.5c0.1,0.1,0.2,0.3,0.3,0.5c-0.3,0.2-0.5-0.2-0.8,0c-0.1-0.2-0.2-0.3-0.3-0.6c0-0.2,0.1-0.6,0.2-0.9
		c0.1-0.3,0.1-0.5,0.1-0.8c0-0.3,0.1-0.5,0.3-0.7c0.3-0.3,0.5-0.7,0.4-1.2c0-0.2-0.1-0.4,0.1-0.6c0-0.1,0-0.2,0-0.4
		c-0.1,0.1-0.2,0.1-0.2,0.1c-0.1,0.3-0.2,0.5-0.3,0.8c0,0.2-0.1,0.3-0.1,0.5c0,0.2-0.2,0.3-0.2,0.6c0,0.2-0.2,0.4-0.3,0.5
		c-0.1,0.1-0.3,0.2-0.4,0.2c-0.3,0.1-0.6,0.2-0.7,0.4c-0.3,0.1-0.6,0.1-0.9,0.2c-0.1-0.2,0-0.4,0.2-0.4c0.3-0.1,0.1-0.3,0.3-0.5
		c0.1-0.1,0-0.2,0-0.3c0.1-0.1,0.2-0.2,0.4-0.3c-0.1,0-0.2-0.1-0.2-0.1c0-0.1,0-0.1,0.1-0.1c0.5-0.3,0.7-0.8,1-1.2
		c0.2-0.3,0.5-0.5,0.7-0.8c0.1-0.1,0.3-0.1,0.5-0.1c0.4,0,0.8-0.1,1.2-0.4c0.2-0.1,0.3-0.2,0.5-0.2c0.4,0,0.7-0.1,1.1,0.1
		c0.4,0,0.7,0.2,1.1,0.2c0.7,0,1.4-0.1,2.1-0.6c-0.1-0.1-0.2-0.1-0.3-0.2c0.1-0.3,0.5-0.3,0.6-0.6c0.3-0.1,0.5-0.2,0.8-0.4
		c-0.1-0.1-0.2-0.2-0.2-0.3c0.1-0.2,0.2-0.1,0.3-0.1c0.2,0.1,0.3,0.1,0.5,0c0.2-0.1,0.3-0.1,0.5-0.1c0.1,0,0.2-0.2,0.3,0
		c0.1,0.1,0.3,0.1,0.5-0.1c0.1-0.1,0.2-0.1,0.3-0.1c0,0.2,0,0.3,0,0.4c0.4,0.5,0.9,1,1.4,1.5c0,0.1,0,0.2,0,0.4
		c-0.2,0.3-0.5,0.2-0.8-0.1c-0.4-0.1-0.8-0.1-1.3-0.2c-0.2,0.4-0.4,0.8-0.5,1.2c-0.1,0.2-0.2,0.4-0.3,0.7c-0.1,0.3-0.3,0.6-0.2,0.9
		c0.3,0.3,0.8,0.3,1,0.7c0,0.5,0.1,1,0.1,1.5c0,0.3-0.1,0.6-0.4,0.8c-0.1,0.1-0.2,0.1-0.4,0.2c0-0.3,0-0.5,0-0.8c0.1,0,0.2,0,0.4,0
		c0.1-0.5-0.2-0.9-0.2-1.4c-0.4-0.1-0.7-0.1-1.2-0.2c0.1,0.4,0,0.7,0.1,1.1c0.1,0.3,0.1,0.7,0.1,1c0.1,0.4,0.7,0.4,0.7,0.9
		c-0.2,0-0.4-0.1-0.7-0.1c0-0.1-0.1-0.2-0.2-0.3c-0.1,0-0.1,0-0.2,0c0-0.2-0.1-0.4-0.1-0.6c0-0.4-0.3-1.4-0.5-1.9
		c-0.2,0-0.4,0-0.6,0.1c-0.2,0.1-0.5,0-0.8-0.1c-0.3-0.1-0.5-0.1-0.8-0.2c-0.3-0.1-0.6-0.3-0.9-0.5c-0.1,0.5-0.2,0.9-0.2,1.4
		c0,0.4,0.2,0.6,0.3,0.9c0.1,0.2,0.2,0.4,0.3,0.5c0.2,0.2,0.3,0.3,0.5,0.5c0,0,0.1,0,0.1,0.1c0,0.1,0,0.1,0,0.2c-0.2,0-0.5,0-0.7,0
		C36,20.6,35.5,20,35,19.4z"/>
	<path fill="#FCC916" d="M14.3,31c0.3,0.4,0.6,0.3,1,0.3c0.1-0.2,0.1-0.4,0.2-0.6c0.3,0.2,0.4,0.4,0.3,0.7c-0.1,0.3-0.1,0.6-0.5,0.8
		c-0.3,0.1-0.6,0.1-0.8,0.1c-0.5-0.2-0.9-0.5-1.1-0.9c-1.1,0.3-2.1-0.1-2.8-0.9C10.3,30,10,29.5,10.1,29c0-0.2,0-0.3,0-0.5
		c0-0.8,0.4-1.5,1.1-2c0.3-0.2,0.6-0.4,0.9-0.5c0.1,0,0.1-0.1,0.2-0.1c0.4,0,0.9,0,1.3,0.1c0.5,0.1,0.8,0.3,1.1,0.6
		c0.2,0.3,0.5,0.5,0.6,0.9c0.1,0.3,0.2,0.5,0.2,0.8c0,0.2,0,0.3,0,0.5c0,0.7-0.4,1.5-1,1.9C14.4,30.9,14.4,30.9,14.3,31z M13.8,30.4
		c0.5-0.3,0.5-0.7,0.6-1.2c0.1-0.4-0.1-0.7-0.1-1.1c0-0.2-0.2-0.4-0.3-0.6c-0.1-0.2-0.2-0.3-0.3-0.4c-0.2-0.2-0.4-0.4-0.6-0.5
		c-0.3-0.2-0.6-0.1-0.9-0.1c0,0,0,0,0,0c-0.1,0-0.1,0-0.2,0.1c-0.4,0.2-0.6,0.5-0.7,0.9c-0.1,0.3-0.2,0.6-0.1,0.9
		c0,0.3,0.1,0.5,0.2,0.8c0.1,0.2,0.1,0.4,0.3,0.5c0.4-0.1,0.8-0.2,1.2-0.1C13.3,29.8,13.5,30.1,13.8,30.4z M13,30.7
		c-0.3-0.3-0.6-0.7-1.2-0.7c0.1,0.3,0.3,0.4,0.5,0.5C12.5,30.7,12.7,30.9,13,30.7z"/>
	<path fill="#FCC916" d="M7.2,13.3C7,13.2,6.9,13.1,6.8,13c0-0.1,0-0.1,0-0.1c0.5-0.4,1.1-0.7,1.6-1c0,0,0.1,0.1,0.2,0.1
		c-0.1,0.1-0.2,0.2-0.3,0.3c0.1,0.2,0.2,0.5,0.4,0.7c0.4,0.4,0.7,0.9,1,1.4c0.2,0.2,0.4,0.5,0.5,0.8c0.2,0.2,0.4,0.5,0.5,0.7
		c0.2,0.1,0.5-0.1,0.6,0.2c-0.2,0.1-0.3,0.3-0.5,0.4c-0.3,0.1-0.5,0.4-0.8,0.5c-0.2,0.1-0.2,0.1-0.5,0.1c0.1-0.1,0.2-0.2,0.2-0.4
		c0.1-0.2,0-0.4-0.2-0.6c-0.4-0.6-0.8-1.2-1.2-1.7c-0.2-0.3-0.4-0.5-0.6-0.8c-0.1,0.9,0.2,1.8,0,2.7c-0.4,0-0.7-0.3-1.1-0.5
		c-0.4-0.1-0.7-0.3-1.2-0.5c0.1,0.1,0.1,0.3,0.2,0.3c0.5,0.6,0.9,1.3,1.4,1.9c0.1,0.3,0.3,0.4,0.5,0.6c0.1-0.1,0.1-0.1,0.2-0.1
		c0.2,0.1,0.2,0.1,0.2,0.4c-0.9,0.7-0.9,0.7-1.3,0.7c0,0,0-0.1,0-0.1c0.2-0.4,0-0.7-0.1-1c-0.4-0.5-0.8-1-1.1-1.6
		c-0.3-0.5-0.7-0.9-1.1-1.4c-0.2,0-0.3,0.1-0.5,0.1c0-0.1,0-0.2,0-0.3c0.5-0.4,1.1-0.8,1.7-1.2c0,0.2,0,0.3,0,0.4
		c0.1,0.2,0.3,0.2,0.5,0.3c0.4,0.1,0.8,0.4,1.2,0.6c0-0.3,0-0.6-0.1-1C7.2,13.8,7.2,13.5,7.2,13.3z"/>
	<path fill="#FCC916" d="M21.1,11.3c0.1-0.1,0.2-0.2,0.4-0.4c-0.1-0.5-0.2-1-0.3-1.5c-0.2-0.6-0.4-1.2-0.6-1.7
		c0.1-0.2-0.2-0.3-0.2-0.5c0-0.2-0.1-0.3-0.2-0.5c-0.2,0-0.3,0-0.4,0c0-0.1,0-0.2,0-0.3c0.6-0.2,1.2-0.3,1.7-0.5
		c0.3-0.1,0.6-0.2,0.9-0.3c0.2,0,0.4-0.3,0.7-0.2c0.3-0.2,0.5,0,0.7,0.1c0.1,0.1,0.2,0.2,0.3,0.3c0,0.2,0,0.5,0,0.7
		c-0.2,0.2-0.4,0.4-0.5,0.6c0.3,0.1,0.7,0.1,1,0.3c0.4,0.3,0.9,0.5,0.9,1.2c0.2,0.3,0.1,0.5,0,0.8c-0.1,0.2-0.2,0.3-0.3,0.5
		c-0.1,0.2-0.2,0.3-0.4,0.3c-0.7,0.4-1.5,0.6-2.2,0.9c-0.2,0.1-0.5,0.1-0.7,0.2c-0.2,0.1-0.4,0.1-0.6,0.1
		C21.2,11.4,21.2,11.3,21.1,11.3z M22.5,10.4c0.7-0.2,1.4-0.4,1.8-1c0-0.5,0-0.9-0.4-1.3c-0.3-0.3-0.7-0.4-1.1-0.4
		c-0.4,0.3-0.7,0.5-1,0.7C22.1,9.1,22.3,9.7,22.5,10.4z M21.7,7.9c0.4-0.3,0.7-0.6,1-1c0.1-0.2,0.2-0.4,0.2-0.6c0,0-0.1-0.1-0.1-0.1
		c-0.6-0.1-1.1,0.1-1.5,0.4C21.5,7,21.6,7.4,21.7,7.9z"/>
	<path fill="#FCC916" d="M87.6,15.6c-0.1,0.1-0.2,0.3-0.3,0.4c-0.2,0.2-0.3,0.2-0.6,0.2c-0.3,0-0.6,0-0.9,0c0,0.1,0,0.3,0,0.4
		c0,0.5-0.2,1.3-0.4,2c-0.1,0.2-0.2,0.5-0.1,0.7c0,0.1,0,0.2,0,0.3c-0.1,0-0.2,0-0.2,0c-0.2-0.2-0.5-0.3-0.7-0.5
		c-0.2-0.2-0.3-0.4-0.6-0.5c0.1-0.1,0.1-0.3,0.2-0.3c0.5,0,0.5-0.4,0.6-0.7c0.2-0.5,0.1-1.1,0.1-1.7c-0.1-0.1-0.3-0.2-0.4-0.2
		c-0.3,0.1-1.2,1.3-1.4,1.6c0.1,0.2,0.2,0.3,0.2,0.5c-0.1,0.1-0.2,0.1-0.4,0c-0.4-0.3-0.8-0.6-1.1-0.9c-0.1,0-0.1-0.1-0.2-0.1
		c0.1-0.1,0.2-0.2,0.2-0.3c0.1,0,0.1,0.1,0.2,0.1c0.1,0,0.3-0.1,0.3-0.1c0.2-0.3,0.5-0.6,0.7-0.8c0.3-0.4,0.6-0.8,0.9-1.2
		c0.3-0.3,0.5-0.6,0.7-0.9c0.1-0.2,0.2-0.5,0-0.7c0.1,0,0.2-0.1,0.3-0.1c0.4,0.3,0.8,0.6,1.2,1c0.4,0.3,0.7,0.5,1.1,0.8
		C87.5,14.8,87.7,15.1,87.6,15.6z M84.6,15.3c0.1,0,0.3,0,0.4,0.1c0.1,0.1,0.4-0.1,0.5,0.1c0.2,0,0.5,0,0.7-0.1
		c0.2-0.1,0.3-0.3,0.4-0.5c-0.3-0.6-0.6-0.9-1.1-1c-0.1,0.1-0.1,0.3-0.2,0.4C85.1,14.8,84.8,15.1,84.6,15.3z"/>
	<path fill="#FCC916" d="M38.1,7.7c0-0.3,0.3-0.3,0.4-0.4c0.1-0.8,0-1.5-0.1-2.2c-0.1-0.7,0-1.4-0.3-2.1c-0.1-0.1-0.3-0.1-0.4-0.2
		c0.1-0.1,0.1-0.2,0.2-0.3c0.2,0,0.4,0,0.5,0c0.7,0,1.4-0.2,2.1-0.1c0.2,0,0.4-0.1,0.6-0.1c0.4,0,0.8,0.4,0.8,0.8c0,0.1,0,0.3,0,0.4
		c-0.1,0.2-0.2,0.4-0.3,0.5c-0.1,0.2-0.3,0.3-0.5,0.4c0,0.1,0,0.1,0,0.1c0.6,0.5,0.9,1.2,1.2,1.8c0.2,0.4,0.3,0.5,0.6,0.6
		c0,0.1,0,0.2,0,0.3c0,0,0,0-0.1,0c-0.5,0-0.9,0.1-1.4,0.1c-0.1,0-0.2-0.1-0.4-0.1c0.2-0.1,0.3-0.2,0.4-0.3c-0.2-0.7-0.6-1.2-1-1.7
		c0,0,0,0-0.1-0.1C40.3,5.3,40.3,5,40.1,5c-0.2,0-0.3,0.1-0.5,0.2c0,0.5,0,0.9,0,1.3c0,0.2,0.1,0.4,0.1,0.5c0,0.2,0.3,0.2,0.4,0.3
		c0,0,0,0.1,0.1,0.1c0,0.1-0.1,0.2-0.3,0.2C39.3,7.7,38.7,7.7,38.1,7.7z M39.4,3.1c0,0.1-0.1,0.3-0.1,0.4c0.1,0.4,0.1,0.8,0.2,1.2
		c0.4-0.1,0.7-0.3,1-0.6c0.4-0.3,0.5-0.5,0.2-1c-0.2,0-0.4-0.1-0.6-0.1C39.9,2.9,39.6,3,39.4,3.1z"/>
	<path fill="#FCC916" d="M66.3,5c-0.1,0-0.2-0.1-0.3-0.2c0-0.1,0-0.1,0-0.2c0,0,0.1,0,0.1,0c0.4,0.1,0.9,0.3,1.3,0.4
		c0.9,0.2,1.7,0.6,2.3,1.4c0.2,0.2,0.3,0.5,0.4,0.8c0.3,0.9,0.1,1.5-0.3,2.3c-0.2,0.4-0.6,0.7-1,0.8c-0.3,0.1-0.7,0.3-1.1,0.1
		c-0.2-0.1-0.4-0.1-0.6-0.1c-0.5-0.1-1-0.3-1.5-0.5c-0.3-0.1-0.5-0.2-0.8-0.3c-0.1,0-0.2-0.1-0.4-0.2c0.3-0.1,0.4-0.1,0.6-0.2
		c0.2-0.4,0.3-0.8,0.5-1.2c0.2-0.7,0.4-1.4,0.7-2.1c0,0,0.1-0.1,0.1-0.1C66.2,5.5,66.2,5.3,66.3,5z M66,9.3c0.4,0.1,0.6,0.3,0.9,0.3
		c0.3,0,0.6,0.1,0.9,0c0.3-0.1,0.6-0.3,0.9-0.6c0.1-0.2,0.4-1.2,0.4-1.4c0-0.2-0.1-0.4-0.1-0.6c-0.1-0.4-0.3-0.8-0.6-1.1
		c-0.2-0.2-0.6-0.4-1-0.4c0,0-0.1,0-0.1,0c-0.1,0.1-0.2,0.3-0.2,0.3C67.1,6.2,67,6.5,67,6.7c-0.1,0.4-0.3,0.8-0.4,1.2
		c-0.1,0.4-0.4,0.8-0.4,1.2C66.2,9.2,66.1,9.2,66,9.3z"/>
	<path fill="#FCC916" d="M38.7,28.6c-0.1,0.1-0.1,0.1-0.2,0.1c-0.1,0-0.2,0-0.3,0c0,0.7,0,1.4,0,2.1c0.1,0,0.2,0.1,0.3,0.1
		c0.1,0.1,0.1,0.2,0.2,0.3c-0.7,0-1.4,0-2,0c0.1-0.2,0.1-0.2,0.4-0.4c-0.1-0.3,0.1-0.7,0.1-1c0-0.4,0-0.8,0-1.2c0-0.4,0-0.7,0-1.1
		c0-0.4-0.2-0.7-0.1-1.1c-0.1,0-0.3-0.1-0.4-0.2c0-0.1,0.1-0.2,0.1-0.2c1.1,0,2.2,0,3.4,0c0.2,0.1,0.4,0.3,0.5,0.4
		c0,0.1,0,0.1,0,0.1c0.2,0.5,0,0.9-0.4,1.3c-0.2,0.1-0.4,0.2-0.5,0.3c0.3,0.4,0.5,0.8,0.8,1.2c0.2,0.2,0.3,0.5,0.3,0.7
		c0,0.3,0.2,0.5,0.4,0.7c0.1,0.1,0.1,0.1,0.1,0.4c-0.6,0-1.2,0-1.8,0c0.2-0.2,0.3-0.3,0.4-0.5c0-0.1,0-0.2,0-0.3
		C39.6,29.9,39.3,29.2,38.7,28.6z M38.1,28.2c0.6-0.1,1.1-0.3,1.4-0.9c0-0.1,0-0.3,0-0.3c-0.1-0.2-0.2-0.3-0.3-0.4
		c-0.4-0.1-0.8,0-1.2,0.1C38.1,27.2,38.1,27.7,38.1,28.2z"/>
	<path fill="#FCC916" d="M78,26.4c-0.1,0-0.2,0-0.4,0c0.1-0.1,0.1-0.2,0.2-0.3c1,0,2.1,0,3.1,0c0.1,0,0.3,0,0.4,0.1
		c0.5,0.2,0.6,0.3,0.6,0.8c0,0.1,0,0.2,0,0.3c-0.2,0.5-0.6,0.7-1,1c0.1,0.2,0.2,0.4,0.3,0.6c0.3,0.6,0.7,1.1,0.9,1.7
		c0,0.1,0.2,0.3,0.3,0.4c0.1,0.1,0.2,0.2,0.3,0.4c-0.7,0-1.3,0-1.9,0c0.1-0.1,0.1-0.2,0.2-0.4c0.1-0.4-0.2-0.8-0.4-1.2
		c-0.1-0.2-0.3-0.5-0.4-0.7c-0.1-0.1-0.1-0.1-0.2-0.1c0,0,0-0.1-0.1-0.2c-0.2,0.1-0.5,0.2-0.7,0.2c0,0.5,0,1.1,0,1.6
		c0,0.2,0.1,0.5,0.3,0.6c0.1,0,0.1,0.2,0.3,0.3c-0.8,0-1.5,0-2.2,0c0.1-0.1,0.1-0.2,0.2-0.3c0.1-0.1,0.3-0.2,0.4-0.3
		c0-1.3,0-2.5,0-3.7C78.1,26.8,78.1,26.6,78,26.4z M79.2,28.3c0.6-0.3,1.3-0.4,1.6-1.2c-0.1-0.2-0.2-0.3-0.3-0.4
		c-1.1,0-1.1,0-1.3,0.1C79.2,27.3,79.2,27.8,79.2,28.3z"/>
	<path fill="#FCC916" d="M76.9,12.7c0-0.8,0.3-1.4,0.8-2c0.5-0.5,1.1-0.8,1.9-0.8c0.8,0,1.5,0.3,2,0.9c0.5,0.5,0.8,1.2,0.8,2
		c0,0.5-0.2,0.9-0.4,1.3c-0.2,0.4-0.6,0.8-1.1,1.1c-0.4,0.2-0.9,0.4-1.4,0.3c-0.7,0-1.4-0.3-2-0.8C77.2,14.2,76.8,13.4,76.9,12.7z
		 M79.1,10.8c-0.2,0.2-0.5,0.4-0.6,0.6c-0.4,0.7-0.6,1.5-0.3,2.4c0.1,0.4,0.4,0.7,0.8,0.8c0.3,0.1,0.7,0.1,1,0
		c0.7-0.3,1-0.9,1.3-1.5c0-0.5,0.1-1-0.1-1.5c-0.1-0.2-0.2-0.4-0.4-0.6c-0.2-0.1-0.6-0.4-0.9-0.4c-0.2,0-0.4,0.1-0.6,0.1
		C79.3,10.7,79.2,10.8,79.1,10.8z"/>
	<path fill="#FCC916" d="M28.6,3.9c0.7-0.1,1.3,0.3,1.9,0.7c0.5,0.7,0.9,1.2,0.8,2.2c0,0.6-0.2,1.2-0.6,1.6c-0.6,0.7-1.4,1-2.3,1
		c-0.7,0-1.3-0.3-1.8-0.8c-0.6-0.6-0.7-1.2-0.8-2c0-0.5,0.2-0.9,0.4-1.3c0.2-0.3,0.4-0.6,0.7-0.8C27.4,4.1,28,3.8,28.6,3.9z
		 M27.7,4.6c-0.1,0.1-0.1,0.1-0.2,0.2c-0.5,0.1-0.5,0.6-0.7,1c-0.1,0.1,0,1.1,0.1,1.3c0.2,0.5,0.6,1.1,1,1.3
		c0.2,0.1,0.4,0.2,0.6,0.2c0.8,0,0.8,0.2,1.5-0.5c0-0.1,0.1-0.1,0.1-0.1c0.1-0.4,0.2-0.7,0.1-1.1c-0.1-0.7-0.4-1.3-0.9-1.8
		c-0.3-0.2-0.6-0.5-1-0.4c-0.1,0-0.2-0.1-0.3,0C28,4.7,27.8,4.6,27.7,4.6z"/>
	<path fill="#FCC916" d="M76.3,9.8c-0.1,1.1-0.5,1.9-1.5,2.4c-0.5,0.3-1,0.3-1.6,0.2c-0.3,0-0.5-0.1-0.8-0.2
		c-0.7-0.4-1.2-0.8-1.5-1.6c-0.1-0.4-0.3-0.8-0.1-1.3C71,9,71.1,8.7,71.2,8.4c0.3-0.7,0.9-1,1.5-1.3C73.1,7,73.5,7,73.8,7
		c0.4,0.1,0.8,0.2,1.2,0.4c0.5,0.3,1.1,1,1.3,1.6c0,0.1,0.1,0.2,0.1,0.3C76.4,9.5,76.3,9.6,76.3,9.8z M75.2,9.8c0-0.2,0-0.3,0-0.3
		c0-0.6-0.2-1.1-0.7-1.5c-0.3-0.3-0.7-0.4-1.1-0.3c-0.5,0.1-0.9,0.4-1.1,0.9c-0.1,0.3-0.2,0.6-0.3,0.9c-0.1,0.3-0.1,0.7-0.1,1
		c0.1,0.3,0.1,0.7,0.4,0.9c0.1,0.3,0.4,0.5,0.7,0.5c0.2,0.1,0.5,0.2,0.9,0c0.3-0.2,0.7-0.3,0.9-0.6C75,10.8,75.3,10.3,75.2,9.8z"/>
	<path fill="#FCC916" d="M64.5,28.1c-0.2,0-0.4,0-0.6,0c0,0.8,0,1.6,0,2.5c0.3,0.1,0.5,0.3,0.9,0.1c0.2-0.1,0.5-0.1,0.8-0.3
		c0.4-0.2,0.6-0.6,0.9-0.9c0.1-0.1,0.2-0.2,0.2-0.3c0.2,0.1,0.2,0.3,0.2,0.5c-0.2,0.5-0.4,1.1-0.5,1.6c0,0-0.1,0.1-0.1,0.1
		c-0.2,0-0.4-0.1-0.6-0.1c-1,0-1.9,0-2.9,0c-0.1,0-0.2,0-0.4,0c0-0.3,0.3-0.3,0.4-0.5c0-1.4,0-2.8,0-4.3c-0.1,0-0.3-0.1-0.4-0.2
		c0-0.1,0.1-0.1,0.2-0.2c0.6,0,1.3,0,1.9,0c0.3,0,0.7,0,1,0c0.1,0,0.2,0,0.3,0c0.3-0.1,0.4-0.1,0.4,0.2c0.1,0.4,0.2,0.7,0.3,1.1
		c0,0.1,0,0.2,0,0.4c-0.2,0.1-0.4,0-0.4-0.2c-0.1-0.3-0.3-0.4-0.5-0.6c-0.2-0.1-0.5-0.2-0.7-0.3c-0.3-0.1-0.6-0.1-0.9,0.1
		c0,0.2,0,0.4,0,0.7c0.3,0,0.6,0,0.9,0c0-0.1,0.1-0.2,0.2-0.4c0.1-0.1,0.3,0,0.3,0.1c0.1,0.6,0.2,1.1,0.3,1.7c-0.1,0-0.2,0-0.3,0
		C65.1,28.5,65,28.2,64.5,28.1z"/>
	<path fill="#FCC916" d="M25.9,29.2c0.2,0.1,0.2,0.3,0.1,0.5c-0.2,0.5-0.3,1-0.5,1.5c0,0.1-0.1,0.1-0.1,0.2c-0.2,0-0.4-0.1-0.6-0.1
		c-1,0-2,0-2.9,0c-0.1,0-0.2,0-0.3,0c0-0.3,0.3-0.3,0.4-0.5c0-1.4,0-2.9,0-4.4c-0.1,0-0.3-0.1-0.4-0.2c0-0.1,0.1-0.2,0.1-0.3
		c0.8,0,1.6,0,2.4,0c0.4,0,0.7,0,1-0.1c0,0,0.1,0,0.1,0.1c0,0,0.1,0,0.1,0.1c0,0.1,0,0.1,0,0.2c0.1,0.5,0.3,0.9,0.3,1.4
		c-0.2,0.1-0.3,0-0.4-0.2c-0.2-0.3-0.5-0.6-0.9-0.8c-0.2-0.1-0.6-0.2-0.8-0.2c-0.1,0-0.2,0.1-0.4,0.1c-0.1,0.1-0.1,0.2-0.1,0.4
		c0,0.1,0,0.2,0,0.3c0.1,0,0.1,0,0.1,0c0.3,0,0.6,0,0.9,0c0-0.1,0.1-0.3,0.2-0.4c0.1,0,0.2,0.1,0.3,0.1c0,0.6,0.3,1.2,0.2,1.8
		c-0.1,0-0.2,0-0.3,0c-0.2-0.7-0.7-0.9-1.5-0.8c0,0.8-0.1,1.6,0.1,2.5c0.3,0.1,0.6,0.3,0.9,0.1c0.5,0,0.9-0.3,1.2-0.7
		c0,0,0.1-0.1,0.1-0.2C25.5,29.6,25.8,29.4,25.9,29.2z"/>
	<path fill="#FCC916" d="M49,7.4c-0.2-0.1-0.2-0.1-0.3-0.2C48.8,7,48.9,7,49.1,7c0-0.1,0.1-0.2,0.1-0.3c0.1-1.3,0.4-2.7,0.3-4.1
		c-0.1-0.2-0.4-0.1-0.4-0.5c0.1,0,0.1,0.1,0.2,0.1c1.1-0.1,2.1,0.2,3.2,0.1c0,0,0,0,0.1-0.1c0,0.1,0.1,0.2,0.1,0.3
		c0.1,0.5,0.4,1,0.3,1.5c-0.2,0.1-0.3,0-0.4-0.2c-0.2-0.3-0.4-0.6-0.7-0.8c-0.4-0.2-0.8-0.2-1.2-0.2c-0.1,0-0.1,0.1-0.2,0.1
		c0,0.2,0,0.4,0,0.6c0.3,0,0.7,0,1,0c0.1-0.1,0.1-0.2,0.2-0.3c0.1,0.1,0.2,0.2,0.3,0.3c0,0.5,0,1.1,0,1.6c-0.1,0-0.2,0-0.3,0
		c-0.2-0.6-0.6-1-1.4-0.9c0,0.1,0,0.2,0,0.4c0,0.5-0.2,1-0.1,1.5c-0.1,0.2-0.2,0.5,0.1,0.7c1.2,0.5,2-0.3,2.6-1.1c0.1,0,0.2,0,0.3,0
		c0,0.4-0.2,0.7-0.3,1c-0.1,0.3-0.2,0.6-0.3,1c-0.3,0-0.6-0.1-0.9-0.1c-0.3,0-0.6,0.1-0.8-0.1c0,0-0.1,0-0.1,0
		C50.2,7.5,49.5,7.5,49,7.4z"/>
	<path fill="#FCC916" d="M87,29.2c0.2,0.1,0.2,0.3,0.2,0.4c-0.2,0.5-0.4,1.1-0.6,1.6c0,0,0,0-0.1,0.1c-0.4-0.2-0.8-0.1-1.3-0.1
		c-0.4,0-0.8,0-1.3,0c-0.4,0-0.9,0-1.4,0c0.1-0.1,0.1-0.3,0.1-0.3c0.2,0,0.3-0.2,0.4-0.5c0-1.2,0-2.4,0-3.6c0-0.2-0.1-0.4-0.1-0.6
		c-0.1,0-0.3,0-0.5,0c0.1-0.1,0.1-0.2,0.2-0.3c0.7,0,1.5,0,2.2,0c0.2,0,0.5,0,0.7,0c0.2,0,0.4-0.1,0.6-0.1c0,0,0.1,0.1,0.1,0.1
		c0.1,0.5,0.2,1.1,0.3,1.6c-0.1,0-0.2,0-0.3,0c-0.4-0.9-1.1-1.2-2-1.2c-0.1,0.1-0.2,0.2-0.3,0.3c0,0.2,0,0.3,0,0.5
		c0.3,0,0.6,0,0.9,0c0.1-0.1,0.2-0.2,0.3-0.4c0.1,0,0.2,0.1,0.3,0.1c0.1,0.6,0.1,1.2,0.2,1.8c-0.1,0-0.2,0-0.3,0c0-0.1,0-0.1,0-0.2
		c-0.1-0.5-0.4-0.7-0.9-0.7c-0.2,0-0.3,0-0.5,0c-0.1,1.1-0.1,2.2,0.1,2.6c0,0,0.1,0,0.2,0c0.2,0,0.4,0.1,0.5,0.1
		c0.2-0.1,0.3,0,0.4-0.1c0.2-0.1,0.4-0.2,0.6-0.3c0.2-0.1,0.4-0.3,0.5-0.5c0.1-0.2,0.3-0.3,0.3-0.5C86.8,29.3,86.9,29.3,87,29.2z"/>
	<path fill="#FCC916" d="M4.8,31.3C5,31.1,5,31,5.1,31c0.3-0.1,0.4-0.4,0.4-0.7c0-1.2,0-2.4,0-3.6c-0.2-0.2-0.2-0.5-0.5-0.4
		c0-0.1,0-0.1,0-0.2c0-0.1,0.1-0.1,0.1-0.2c0.8,0,1.5,0,2.3,0c0.4,0,0.7,0,1.2-0.1c0,0,0,0,0.1,0.1c0,0,0.1,0.1,0.1,0.1
		c0.1,0.5,0.2,1,0.3,1.5c-0.1,0-0.2,0-0.3,0c-0.1-0.3-0.3-0.6-0.5-0.7c-0.3-0.2-0.5-0.4-0.9-0.3c-0.3-0.2-0.6-0.1-0.8,0
		c0,0.2,0,0.4,0,0.7c0.3,0,0.6,0,0.9,0c0.1-0.1,0.2-0.3,0.3-0.4c0.1,0,0.2,0.1,0.3,0.1c0.1,0.6,0.1,1.2,0.2,1.8c-0.1,0-0.2,0-0.3,0
		c-0.1-0.3-0.2-0.7-0.7-0.8c-0.2,0-0.4,0-0.7,0c0,0,0,0,0,0c0,0,0,0,0,0c0,0.8,0,1.6,0,2.4c0.3,0.1,0.5,0.4,0.9,0.1
		c0.2-0.1,0.3,0,0.5-0.1c0.6-0.3,0.9-0.7,1.2-1.2c0-0.1,0.1-0.1,0.1-0.2c0.2,0.1,0.2,0.3,0.2,0.4c-0.2,0.6-0.4,1.1-0.6,1.7
		c0,0,0,0,0,0c-0.6-0.1-1.3,0-1.9-0.1C6.2,31.3,5.6,31.3,4.8,31.3z"/>
	<path fill="#FCC916" d="M60.4,3.8c-0.2-0.1-0.3-0.3-0.5-0.4c0.8-0.2,1.4,0.2,2,0.3C62,3.8,62,4,62,4c0.4,0.6,0.8,1.2,1.2,1.7
		c0.2-0.5,0.2-0.9,0.2-1.4c0-0.2-0.4-0.1-0.3-0.3c0.4-0.1,0.7,0.1,1,0.1c0.1,0,0.2,0,0.3,0.1c0.1,0,0.1,0,0.3,0.3
		c-0.1,0-0.3,0-0.4,0C64.1,4.7,64,4.9,64,5.2c0,0.5-0.2,1-0.3,1.5c-0.1,0.5-0.2,1-0.3,1.5c0,0-0.1,0.1-0.2,0.2c0,0.2,0,0.3,0,0.5
		c0.1,0.1,0.2,0.1,0.3,0.2c0,0.1,0,0.1,0,0.2c0,0-0.1,0.1-0.1,0.1c-0.2,0-0.5,0-0.7-0.1c-0.2-0.1-0.3-0.1-0.5-0.1
		c-0.1,0-0.2-0.1-0.3-0.2c0.1-0.1,0.2-0.2,0.3-0.2c0.2,0,0.2-0.1,0.3-0.3c0.1-0.2,0.2-0.4,0.2-0.7c0-0.2,0.1-0.5,0.1-0.6
		c-0.6-0.9-1.2-1.7-1.8-2.5c0,0-0.1,0.1-0.1,0.1c-0.1,1.2-0.6,2.3-0.7,3.4c0.1,0.2,0.3,0.3,0.4,0.5c-0.3,0-0.4,0-0.5,0
		c-0.4-0.2-0.8-0.1-1.3-0.4c0.2-0.1,0.4-0.2,0.6-0.4c0.1-0.1,0.1-0.4,0.3-0.6c0.1-0.1,0-0.3,0.1-0.5c0-0.5,0.2-0.9,0.2-1.3
		c0.1-0.5,0.2-1,0.2-1.5C60.3,4,60.4,3.9,60.4,3.8z"/>
	<path fill="#FCC916" d="M50.4,30.7c0.1,0.3,0.5,0.2,0.5,0.6c-0.6,0.1-1.1,0-1.7,0c0-0.3,0.3-0.3,0.4-0.5c0-1.4,0-2.9,0-4.4
		c-0.1,0-0.3-0.1-0.4-0.2c0-0.1,0.1-0.2,0.1-0.2c0.6,0,1.2,0,1.7,0c0.2,0.1,0.1,0.5,0.4,0.5c0.2,0,0.3,0.3,0.5,0.5
		c0.3,0.3,0.5,0.5,0.8,0.8c0-0.5,0.1-1-0.1-1.5c-0.1,0-0.2,0-0.3-0.1c0.1-0.1,0.1-0.2,0.2-0.3c0.4,0,0.8,0,1.3,0
		c0,0.1,0.1,0.1,0.2,0.2c-0.2,0.1-0.3,0.1-0.4,0.2c-0.1,0.1-0.1,0.2-0.2,0.3c0,1.2,0,2.4,0,3.6c0,0.3,0.1,0.5,0.3,0.6
		c0.1,0,0.1,0.2,0.2,0.3c-0.6,0-1.2,0-1.7,0c0-0.3,0.3-0.3,0.4-0.4c0-0.2,0.1-0.5,0.1-0.7c0-0.2,0-0.5,0-0.8
		c-0.8-0.7-1.6-1.5-2.4-2.2C50.4,28.3,50.4,29.5,50.4,30.7z"/>
	<path fill="#FCC916" d="M13.3,14.2c0.6,0,1-0.3,1.3-0.8c0.2-0.3,0.4-0.6,0.3-1c0.2-0.2,0.1-0.5,0.1-0.7c0.1,0.1,0.2,0.2,0.3,0.3
		c0.1,0.6,0.3,1.2,0.3,1.8c-0.2,0.1-0.3,0.1-0.4,0.2c-0.6,0.4-1.2,0.7-1.9,1c-0.3,0.1-0.5,0.3-0.8,0.4c-0.2,0.1-0.3,0.1-0.5,0.1
		c0.3-0.4,0.2-0.7,0-1.1c-0.4-0.8-0.8-1.6-1.2-2.4c-0.2-0.3-0.4-0.6-0.6-0.9c-0.2,0-0.3,0-0.5,0c0,0,0-0.1,0-0.1
		C9.9,11.1,10,11,10.1,11c0.7-0.4,1.5-0.8,2.2-1.2c0.2-0.1,0.4-0.3,0.6-0.5c0.4,0.4,0.8,0.8,1.2,1.2c0,0,0,0.1,0,0.2
		c0,0-0.1,0-0.1,0c-0.1,0-0.1,0-0.2-0.1c-0.3-0.2-0.7-0.3-1.1-0.3c-0.5,0-0.8,0.2-1.2,0.5c0.1,0.2,0.2,0.4,0.2,0.6
		c0,0,0.1,0.1,0.1,0.1c0.4-0.1,0.5-0.4,0.8-0.7c0-0.1,0-0.2,0-0.3c0,0,0.1-0.1,0.2-0.2c0.1,0.2,0.3,0.4,0.4,0.6
		c0.2,0.3,0.4,0.5,0.6,0.8c0.1,0.1,0.1,0.2,0.1,0.4c-0.3-0.2-0.5-0.3-0.8-0.5c-0.1,0-0.3,0-0.5,0c-0.1,0.1-0.3,0.2-0.5,0.4
		c0.2,0.3,0.3,0.6,0.4,0.9c0.2,0.3,0.4,0.6,0.5,0.9C13.1,14,13.2,14.1,13.3,14.2z"/>
	<path fill="#FCC916" d="M69,31.3c-0.5,0-1.1,0-1.7,0c0.1-0.1,0.2-0.3,0.2-0.3c0.3-0.1,0.3-0.3,0.3-0.6c0-1.2,0-2.4,0-3.6
		c-0.2-0.3-0.2-0.3-0.5-0.4c0.1-0.1,0.1-0.2,0.1-0.3c0.6,0,1.2,0,1.8,0c0.2,0.1,0.1,0.3,0.2,0.5c0.3,0.1,0.5,0.4,0.7,0.6
		c0.2,0.2,0.4,0.4,0.7,0.7c0-0.5,0-0.9,0-1.4c-0.1,0-0.3-0.1-0.4-0.2c0-0.1,0.1-0.2,0.1-0.2c0.4,0,0.9,0,1.3,0
		c0.1,0.1,0.1,0.1,0.2,0.2c0,0.1,0,0.1-0.1,0.1c-0.1,0-0.2,0-0.3,0.1c-0.1,0.1-0.2,0.3-0.2,0.5c0,0.1,0,0.2,0,0.3c0,1,0,2,0,2.9
		c0,0.2,0,0.3,0.1,0.5c0.1,0.1,0.1,0.3,0.2,0.3c0.1,0,0.1,0.2,0.3,0.3c-0.6,0-1.2,0-1.7,0c-0.1-0.2,0.1-0.3,0.1-0.3
		c0.3-0.1,0.3-0.3,0.4-0.6c0-0.3,0-0.7,0-1c-0.8-0.8-1.6-1.6-2.4-2.4c0,0.1,0,0.2,0,0.3c0,1,0,1.9,0,2.9c0,0.2,0.1,0.4,0.1,0.6
		c0,0.1,0.1,0.1,0.2,0.2C68.9,31.1,69,31.1,69,31.3C69,31.2,69,31.3,69,31.3z"/>
	<path fill="#FCC916" d="M30,30.1c0-0.2,0-0.4,0-0.6c-0.1-0.1-0.3-0.3-0.4-0.4c-0.5-0.2-1-0.4-1.6-0.5c-0.2-0.1-0.3-0.1-0.5-0.2
		c-0.4-0.2-0.7-0.6-0.7-1.1c0-0.6,0.3-0.9,0.8-1.1c0.2-0.1,0.4-0.1,0.7-0.2c0.6,0,1.2,0.2,1.8,0.1c0.1,0.1,0.2,0.1,0.2,0.2
		c0,0.5,0.3,1,0.2,1.5c-0.2,0-0.3-0.2-0.3-0.3c-0.2-0.3-0.4-0.6-0.8-0.8c-0.5-0.2-1-0.2-1.4,0.1c0,0.1,0,0.2,0,0.4
		c0.2,0.2,0.5,0.4,0.9,0.5c0.6,0.1,1.1,0.3,1.7,0.6c0.2,0.1,0.3,0.2,0.4,0.4c0,0.1,0.1,0.2,0.2,0.2c0,0.2,0,0.5,0,0.8
		c0,0.5-0.3,0.8-0.6,1.2c-0.6,0.5-1.2,0.5-1.9,0.5c-0.2,0-0.4-0.1-0.6-0.1c-0.3-0.1-0.5-0.1-0.7,0.1c-0.2-0.8-0.3-1.4-0.4-2.1
		c0,0,0,0,0.1-0.1c0,0,0.1,0,0.1,0c0.1,0.1,0.1,0.3,0.2,0.4c0.4,1,1.4,1.4,2.3,1.1c0.1,0,0.1-0.1,0.2-0.2
		C29.7,30.4,29.8,30.2,30,30.1z"/>
	<path fill="#FCC916" d="M34.8,3.1c0,0,0-0.1,0-0.1c0-0.1,0.1-0.1,0.1-0.1c0.5,0,1-0.1,1.5-0.1c0.1,0,0.1,0,0.2,0
		c0,0.1-0.1,0.2-0.1,0.2c-0.3,0-0.3,0.2-0.3,0.4c-0.1,0.1-0.1,0.3,0,0.5c0.1,0.2,0.1,0.4,0.2,0.6c0.1,0.5,0.1,1.1,0.3,1.7
		c0.1,0.4,0.1,0.9-0.2,1.3c-0.2,0.4-0.5,0.6-1,0.8c-0.5,0.2-1,0.2-1.5,0.2c-0.2,0-0.5-0.1-0.7-0.3c-0.2-0.2-0.4-0.4-0.5-0.7
		c-0.1-0.3,0-0.7-0.2-1c0.1-0.6-0.1-1.1-0.1-1.6c0-0.3-0.1-0.6-0.1-0.9c-0.2-0.2-0.2-0.2-0.5-0.3C32,3.4,32,3.3,32.1,3.3
		c0.3-0.1,0.7,0,1-0.1C33.3,3,33.7,3.2,34,3c0,0.1,0,0.2,0,0.3c-0.2,0.1-0.3,0.1-0.4,0.2c0,0.9,0.2,1.9,0.1,2.8
		c0.2,0.2,0.1,0.5,0.2,0.8c0.1,0.3,0.3,0.4,0.5,0.5c0.4,0,0.8,0.1,1.2-0.2C35.9,7.2,36,7,36,6.8c0-0.3,0.1-0.6-0.1-0.9
		c0-0.5-0.2-0.9-0.2-1.4c0-0.3-0.1-0.6-0.2-0.8C35.4,3.3,35.3,3.2,34.8,3.1z"/>
	<path fill="#FCC916" d="M16.1,26.3c0.1-0.1,0.1-0.1,0.2-0.2c0.6,0,1.2,0,1.8,0c0,0.1,0.1,0.1,0.2,0.2c-0.5,0.2-0.5,0.3-0.6,0.7
		c0,0.3,0,0.6,0,0.9c0.1,0.6-0.1,1.2-0.1,1.7c0,0.6,0.2,0.8,0.8,1c0.4,0.1,0.6,0,0.9-0.1c0.3-0.1,0.5-0.4,0.5-0.7c0-0.7,0-1.3,0-2
		c0-0.2-0.1-0.3-0.1-0.5c0-0.2,0-0.3,0-0.5c-0.2-0.3-0.2-0.6-0.7-0.5c0.1-0.1,0.1-0.2,0.2-0.3c0.5,0,1.1,0,1.6,0
		c0,0.1,0.1,0.1,0.2,0.2c-0.2,0.1-0.3,0.1-0.4,0.2c-0.1,0.1-0.1,0.2-0.2,0.3c0,0.5,0.2,0.9,0.1,1.4c0,0.5,0,1,0,1.5
		c0,0.7-0.3,1.3-1,1.5c-0.2,0.1-0.5,0.2-0.7,0.2c-0.2,0-0.4,0-0.6,0c-0.2,0-0.4-0.1-0.5-0.1c-0.5-0.1-1.1-0.7-1.1-1.2
		c0-0.4-0.1-0.7,0.1-1.1c0-0.1,0-0.2,0-0.3c0-0.5,0-1.1,0-1.6C16.7,26.6,16.6,26.5,16.1,26.3z"/>
	<path fill="#FCC916" d="M45.6,29.1c-0.2,0.6-0.4,1.2-0.6,1.6c0.1,0.3,0.5,0.2,0.4,0.5c-0.6,0-1.1,0-1.7,0c0-0.1,0-0.1,0-0.2
		c0.3-0.1,0.5-0.3,0.6-0.6c0.5-0.8,0.6-1.6,1-2.4c0.1-0.2,0.2-0.5,0.3-0.7c0.1-0.3,0.2-0.6,0.2-0.9c-0.1,0-0.1,0-0.2-0.1
		c0-0.1,0.1-0.2,0.1-0.3c0.5,0,1,0,1.4,0c0.2,0.1,0.3,0.1,0.5,0.2c-0.2,0.1-0.3,0.1-0.4,0.1c0,0.1,0,0.2,0,0.2
		c0.3,0.2,0.3,0.6,0.4,0.9c0.3,0.8,0.5,1.6,0.8,2.3c0,0.1,0.1,0.1,0.1,0.2c0,0.4,0.2,0.8,0.6,1c0,0,0.1,0,0.1,0.1c0,0,0,0.1,0,0.1
		c-0.4,0.1-1.5,0.1-2,0c0-0.2,0.2-0.3,0.3-0.4c0-0.1,0-0.3,0-0.4c0-0.1,0-0.2-0.1-0.3C46.9,29.4,46.3,29.2,45.6,29.1z M45.9,28.4
		c0.3,0.1,0.6,0.2,0.9,0.3c0-0.3-0.3-1.3-0.5-1.6C46.1,27.6,46,28,45.9,28.4z"/>
	<path fill="#FCC916" d="M61,26c0.2,0.5,0.3,1.1,0.3,1.7c-0.1,0-0.2,0-0.3,0c-0.2-0.4-0.5-0.8-0.9-0.9c-0.7-0.2-1.4-0.1-1.8,0.5
		c-0.2,0.3-0.3,0.7-0.3,1.1c0,0.4,0.1,0.9,0.2,1.3c0.2,0.5,0.7,0.9,1.3,1.1c0.9,0.3,1.6-0.1,1.9-0.8c0.1-0.1,0.2-0.3,0.3-0.4
		c0.2,0.1,0.2,0.3,0.2,0.5c-0.2,0.4-0.3,0.8-0.5,1.3c0,0.1-0.1,0.1-0.2,0.2c-0.2,0-0.3-0.3-0.5,0c-0.3,0-0.5,0-0.8,0
		c-0.2,0-0.5,0.1-0.7-0.1c-0.4,0.1-0.7-0.1-1-0.3c-0.3-0.2-0.5-0.3-0.7-0.5c-0.2-0.3-0.4-0.6-0.5-0.9c-0.1-0.2-0.1-0.5-0.1-0.7
		c0-0.2,0-0.4,0-0.6c-0.1-0.6,0.2-1.1,0.5-1.5c0.4-0.4,0.9-0.7,1.5-0.7c0.3,0,0.7,0,1,0c0.1,0,0.2,0,0.3,0c0.2,0.2,0.3,0.1,0.4,0
		C60.7,25.9,60.8,26,61,26z"/>
	<path fill="#FCC916" d="M72.9,25.9c0.1,0.1,0.1,0.2,0.2,0.2c1.2,0,2.4,0,3.6,0c0,0,0.1-0.1,0.1-0.1c0.1,0.1,0.2,0.2,0.3,0.3
		c-0.1,0.5,0.3,1,0.2,1.5c-0.3-0.1-0.3-0.3-0.4-0.5c-0.1-0.2-0.3-0.3-0.5-0.5c-0.3-0.1-0.6-0.1-0.9-0.2c0,1.4,0,2.8,0,4.2
		c0.1,0.1,0.3,0.2,0.5,0.4c-0.3,0.1-1.2,0.1-2,0.1c0-0.3,0.3-0.2,0.4-0.4c0-1.4,0-2.8,0-4.2c-0.3,0.1-0.6,0.1-0.9,0.2
		c-0.2,0.2-0.5,0.4-0.6,0.8c0,0.1-0.1,0.1-0.3,0.2C72.6,27.2,72.7,26.6,72.9,25.9z"/>
	<path fill="#FCC916" d="M33.2,30.8c0-1.4,0-2.8,0-4.2c-0.3,0.2-0.7,0-1,0.3c-0.2,0.2-0.4,0.5-0.6,0.8c-0.1,0-0.2,0-0.2,0
		c0.1-0.6,0.2-1.1,0.3-1.6c0.1,0,0.1-0.1,0.3-0.1c-0.1,0,0,0,0,0c0.1,0,0.1,0.1,0.2,0.1c1.2,0,2.5,0,3.7,0c0,0,0.1,0.1,0.1,0.1
		c0,0,0.1,0.1,0.1,0.1c0,0.5,0.3,1,0.2,1.5c-0.1,0-0.2,0-0.3,0c-0.2-0.3-0.3-0.6-0.6-0.8c-0.3-0.2-0.7-0.1-1-0.3c0,1.4,0,2.8,0,4.1
		c0.1,0.3,0.5,0.3,0.5,0.6c-0.7,0.1-1.4,0-2.1,0c0.1-0.1,0.1-0.2,0.1-0.3C32.9,30.9,33.1,30.9,33.2,30.8z"/>
	<path fill="#FCC916" d="M15.2,8.7c-0.2,0-0.3,0-0.4,0.1c0-0.1,0-0.2,0-0.3c0.6-0.1,1.2-0.6,2-0.7C16.6,8,16.6,8,16.6,8.1
		c-0.1,0.1-0.1,0.2-0.2,0.3c0,0,0.1,0,0.1,0.1c0,0.4,0.2,0.6,0.4,1c0.2,0.4,0.4,0.7,0.5,1.1c0.1,0.4,0.4,0.7,0.4,1.1
		c0,0.2,0.2,0.3,0.3,0.5c0.2,0,0.3,0,0.4,0c0.9-0.4,1.1-1.2,1.1-2c0.1-0.1,0.1-0.2,0.2-0.3c0.1,0.1,0.2,0.1,0.2,0.2
		c0,0.1,0,0.2,0,0.3c0,0.5,0.1,0.9,0.1,1.4c0,0.1,0,0.2,0,0.3c-0.1,0-0.3,0-0.4,0c0,0,0,0,0,0.1c-0.4,0.2-0.7,0.4-1.1,0.6
		c-0.4,0.2-0.8,0.4-1.2,0.6c-0.3,0.1-0.3,0.1-0.5-0.1c0.1-0.1,0.2-0.3,0.3-0.4c-0.1-0.8-0.5-1.4-0.8-2.1C16,10,15.7,9.3,15.2,8.7z"
		/>
	<path fill="#FCC916" d="M42,26.5c-0.1-0.1-0.3-0.1-0.4-0.2c0.1-0.1,0.1-0.1,0.2-0.2c0.6,0,1.1,0,1.7,0c0,0.1,0.1,0.1,0.2,0.2
		c-0.2,0.1-0.3,0.1-0.4,0.2c0,1.5,0,2.9,0,4.4c0.1,0.2,0.4,0.1,0.4,0.4c-0.7,0-1.3,0-2,0c0-0.3,0.3-0.3,0.4-0.4
		C42,29.4,42,28,42,26.5z"/>
	<path fill="#FCC916" d="M56.3,8.2c-0.1-0.1-0.1-0.1-0.1-0.1c0,0,0-0.1,0-0.1c0-0.1,0.1-0.1,0.1-0.1c0.4-0.2,0.5-0.6,0.5-1
		c0-0.2,0.1-0.5,0.1-0.7c0-0.2,0-0.4,0.1-0.6c0.1-0.4,0.1-0.8,0.1-1.3c0-0.2,0-0.3,0.1-0.5c0.1-0.1,0-0.3-0.2-0.5
		c-0.1-0.1-0.1-0.2-0.3-0.3c0.4,0,0.6,0,0.9,0.1c0.3,0.1,0.7,0.1,1.1,0.1c0,0.1,0.1,0.1,0.2,0.3c-0.2,0-0.3,0-0.5,0.1
		c-0.1,0.2-0.2,0.4-0.2,0.7c0,0.4-0.1,0.8-0.1,1.3c0,0.2-0.1,0.4-0.1,0.6c0,0.2,0,0.4-0.1,0.5c-0.1,0.2,0,0.4-0.1,0.6
		c-0.1,0.2-0.1,0.4-0.1,0.7C57.9,7.9,58,7.9,58.1,8c0,0.1,0,0.1,0,0.2C57.5,8.4,56.9,8.1,56.3,8.2z"/>
</g>
</svg>
